Coordinates
version=1
nRows=15
nColumns=34
inDegrees=yes

Units are S.I. units (second, meters, Newtons, ...)
If the header above contains a line with 'inDegrees', this indicates whether rotational values are in degrees (yes) or radians (no).

endheader
time	pelvis_tilt	pelvis_list	pelvis_rotation	pelvis_tx	pelvis_ty	pelvis_tz	hip_flexion_r	hip_adduction_r	hip_rotation_r	knee_angle_r	ankle_angle_r	subtalar_angle_r	mtp_angle_r	hip_flexion_l	hip_adduction_l	hip_rotation_l	knee_angle_l	ankle_angle_l	subtalar_angle_l	mtp_angle_l	lumbar_extension	lumbar_bending	lumbar_rotation	arm_flex_r	arm_add_r	arm_rot_r	elbow_flex_r	pro_sup_r	arm_flex_l	arm_add_l	arm_rot_l	elbow_flex_l	pro_sup_l
      0.00000000	     45.45957662	    -10.67492595	    -19.77057536	      1.14142009	      1.02637530	     -0.42401587	    -22.39272316	    -14.53440210	    -22.09209413	     50.61081336	     32.49308394	      1.26806257	      0.00000000	    -30.00000025	     12.71426654	     10.72064547	     30.08855219	     -0.68419178	    -35.00000000	      0.00000000	    -82.05966695	     -6.85024124	     -7.24111186	     25.81921137	     -0.53885342	     11.50255150	     26.37327843	     83.56916519	     23.59227503	     -2.19054268	      8.07499283	     29.55884839	     90.43306594
      0.01666670	     48.65789969	     -9.65525771	    -17.97751814	      1.13695061	      1.02723656	     -0.42647439	    -26.19087026	    -15.86442800	    -25.05418608	     50.12584757	     33.78993411	      2.64352906	      0.00000000	    -30.00000025	     14.60075199	     11.92104720	     37.51069599	      1.73156463	    -35.00000000	      0.00000000	    -86.04205491	     -4.94760155	    -10.00082176	     26.75503483	     -0.34628111	     10.87504263	     29.26706470	     84.37600178	     24.20062289	     -1.77378773	      6.21043339	     31.48469735	     90.29457095
      0.03333330	     50.69606735	      2.89457059	    -22.18625933	      1.14574401	      1.01965705	     -0.42095502	    -25.62072764	    -36.64407988	    -37.40064031	     57.69489873	     43.17701490	     21.00344841	      0.00000000	    -30.00000025	     29.19050338	     17.12739080	     34.11802195	     -0.04949218	    -35.00000000	      0.00000000	    -84.95169212	    -12.08860438	    -20.48818022	     23.35071513	      2.03984791	      0.68478156	     31.42007381	     94.99567974	     23.12820181	     -1.53181866	      0.80272791	     33.49345153	     93.88229338
      0.05000000	     50.93306533	      3.98135282	    -21.45230033	      1.14737058	      1.02009145	     -0.42042039	    -26.52159524	    -38.38359198	    -39.99999995	     58.86609232	     43.33399538	     22.51664213	      0.00000000	    -30.00000025	     30.00000025	     18.21118409	     34.54100559	     -0.92493732	    -35.00000000	      0.00000000	    -84.99127547	    -11.67557879	    -20.84555285	     22.87660520	      2.01271001	     -0.02462782	     31.85063663	     96.23585015	     23.25628984	     -1.10991746	      0.95546431	     33.70156258	     94.43590038
      0.06666670	     51.12933997	      4.06824085	    -21.16197284	      1.14874491	      1.02209253	     -0.41875542	    -26.85431121	    -38.35023439	    -39.99999995	     59.26446298	     42.23504935	     20.88065188	      0.00000000	    -30.00000025	     30.00000025	     18.36357507	     34.83150025	     -1.26026749	    -35.00000000	      0.00000000	    -86.11843315	    -10.86308153	    -20.84227227	     22.46150142	      2.71962615	     -4.32062536	     33.92821713	     99.87669489	     22.99397182	     -0.75367923	     -0.13459903	     36.41822511	     96.09232366
      0.08333330	     51.09473248	      4.17948291	    -21.20399750	      1.15123487	      1.02376567	     -0.41783321	    -26.93446640	    -38.54919511	    -39.99999995	     59.43004143	     41.84360120	     20.73324124	      0.00000000	    -30.00000025	     30.00000025	     18.16919919	     34.16850546	     -2.62874631	    -35.00000000	      0.00000000	    -86.03243532	    -10.77422883	    -20.55202954	     22.37782208	      2.61094243	     -4.56446258	     33.75268312	    100.17732488	     23.02504922	     -0.38754667	     -0.21646178	     36.54586013	     96.23977113
      0.10000000	     51.11534049	      4.24977112	    -21.31311480	      1.15261353	      1.02336375	     -0.41637508	    -26.99579215	    -38.63620256	    -39.99999995	     59.43772972	     40.99752719	     19.39041349	      0.00000000	    -30.00000025	     30.00000025	     18.17279726	     33.32730603	     -3.44408794	    -35.00000000	      0.00000000	    -86.50215910	    -10.53494580	    -20.70956875	     21.95779744	      3.89355285	    -11.34680223	     35.25819145	    110.06705683	     22.66013698	      0.06369224	     -3.71314699	     38.23050833	    102.04256591
      0.11666670	     51.24963589	      4.16097760	    -21.56040941	      1.15318578	      1.02492128	     -0.41485283	    -27.24727633	    -38.61427158	    -39.99999995	     59.30485913	     39.56326808	     17.45504931	      0.00000000	    -30.00000025	     30.00000025	     17.93492773	     32.62923017	     -4.21168090	    -35.00000000	      0.00000000	    -86.78451903	    -10.50268954	    -20.31853291	     22.00885133	      3.49734638	    -10.57177911	     34.83641237	    110.99875867	     22.93930972	      0.28415759	     -3.34952662	     38.26916966	    102.63010557
      0.13333330	     51.22987022	      4.17752867	    -21.84341993	      1.15361681	      1.02576001	     -0.41239170	    -27.32696568	    -38.63374625	    -39.99999995	     59.08286635	     38.89166545	     16.65365733	      0.00000000	    -30.00000025	     30.00000025	     17.77463290	     31.29207036	     -5.29940465	    -35.00000000	      0.00000000	    -87.01854505	    -10.55856401	    -20.44502507	     22.07037464	      3.57269346	    -10.49552216	     34.78044511	    111.31221170	     23.15764407	      0.11479245	     -3.44644617	     38.38917319	    102.85058676
      0.15000000	     51.25939703	      4.21319661	    -22.04962119	      1.15420335	      1.02476341	     -0.40995370	    -27.42117910	    -38.61152712	    -39.99999995	     58.99177211	     37.39817045	     14.40964932	      0.00000000	    -30.00000025	     30.00000025	     17.60817410	     29.84166043	     -5.88790531	    -35.00000000	      0.00000000	    -87.21508527	    -10.31185589	    -20.57665677	     22.26561110	      3.64795507	    -10.48521293	     34.82945328	    111.94168704	     23.11348238	     -0.00150566	     -3.82626545	     38.91664307	    103.29400159
      0.16666670	     51.08459436	      4.36090931	    -22.35038254	      1.15645204	      1.02467983	     -0.40750949	    -27.33660735	    -38.67109152	    -39.99999995	     58.85202915	     37.11107443	     13.57680956	      0.00000000	    -30.00000025	     30.00000025	     17.39331527	     27.71762135	     -6.62358327	    -35.00000000	      0.00000000	    -87.32112922	    -10.40801164	    -20.69036190	     22.27758408	      3.76728790	    -10.47961613	     34.87363462	    112.21835083	     23.27020073	     -0.14743146	     -4.11098995	     39.13897650	    103.47275529
      0.18333330	     50.71655302	      4.56842163	    -22.64163507	      1.16076321	      1.02460467	     -0.40477563	    -27.11879970	    -38.72918504	    -39.99999995	     58.68415011	     37.03685137	     12.80933054	      0.00000000	    -30.00000025	     30.00000025	     17.38373073	     25.12786580	     -7.27942384	    -35.00000000	      0.00000000	    -87.25944969	    -10.40604688	    -20.77834616	     22.34198675	      3.85842394	    -10.48044882	     34.95228903	    112.44782678	     23.35695665	     -0.26868721	     -4.41533775	     39.28882202	    103.60401282
      0.20000000	     49.93339201	      4.67054192	    -23.76939414	      1.16642274	      1.02587483	     -0.40036481	    -25.49722352	    -38.59313845	    -37.76765095	     58.54762651	     36.65369771	     11.01878842	      0.00000000	    -30.00000025	     30.00000025	     16.79245594	     21.06782611	     -8.68741511	    -35.00000000	      0.00000000	    -87.20683639	    -10.93103179	    -20.77037744	     22.72373893	      3.91537023	    -10.57595423	     34.96062031	    113.50520653	     23.41397186	     -0.21810805	     -5.70080553	     39.70184998	    104.18277326
      0.21666670	     43.47683729	      6.25499410	    -30.83262543	      1.17893264	      1.02843205	     -0.38515920	    -10.91459108	    -38.03257131	    -23.54601964	     59.24093700	     34.84185701	      4.93953574	      0.00000000	    -30.00000025	     30.00000025	     18.85004341	      0.00000000	    -18.00786475	    -35.00000000	      0.00000000	    -84.80089522	    -16.56088055	    -19.64223214	     23.86523485	      3.68424201	    -10.58791322	     35.33453143	    117.05826457	     24.29898445	      0.22452124	     -7.98330788	     40.42349766	    106.53049511
      0.23333330	     43.80989416	      6.41983969	    -29.99652736	      1.18411831	      1.02930146	     -0.38376326	    -12.70452126	    -38.24061382	    -25.10425115	     59.21284391	     36.43849212	      6.10489444	      0.00000000	    -30.00000025	     30.00000025	     19.50343296	      0.00000000	    -18.13371682	    -35.00000000	      0.00000000	    -84.62879120	    -15.71222176	    -19.92112613	     23.57871847	      3.84331817	    -10.77668927	     35.23962373	    117.42767606	     24.12330142	     -0.04838172	     -8.10757904	     39.78242425	    106.89695440
